<?xml version="1.0" encoding="utf-8"?>
<!-- Generator: Adobe Illustrator 21.1.0, SVG Export Plug-In . SVG Version: 6.00 Build 0)  -->
<svg version="1.1" xmlns="http://www.w3.org/2000/svg" xmlns:xlink="http://www.w3.org/1999/xlink" x="0px" y="0px"
	 viewBox="0 0 283.5 283.5" style="enable-background:new 0 0 283.5 283.5;" xml:space="preserve">
<style type="text/css">
	.st0{display:none;}
	.st1{display:inline;fill:#4A99CE;}
	.st2{display:inline;fill:#4587C9;}
	.st3{display:inline;}
	.st4{fill:#4587C9;}
	.st5{fill:none;}
	.st6{fill:#FFFFFF;}
	.st7{font-family:'adiNeue-Bold';}
	.st8{font-size:23.7879px;}
	.st9{fill:#0C0C0C;}
	.st10{fill:#EFDF1D;}
	.st11{fill:#F9F9F9;}
	.st12{fill:none;stroke:#191919;stroke-width:1.9927;stroke-linecap:square;stroke-linejoin:round;stroke-miterlimit:10;}
	.st13{fill:none;stroke:#191919;stroke-width:2.0259;stroke-linecap:square;stroke-linejoin:round;stroke-miterlimit:10;}
	.st14{fill:none;stroke:#191919;stroke-width:2.0586;stroke-linecap:square;stroke-linejoin:round;stroke-miterlimit:10;}
	.st15{fill:none;stroke:#191919;stroke-width:2.0563;stroke-linecap:square;stroke-linejoin:round;stroke-miterlimit:10;}
	.st16{fill:none;stroke:#191919;stroke-width:1.9196;stroke-linecap:square;stroke-linejoin:round;stroke-miterlimit:10;}
	.st17{fill:none;stroke:#191919;stroke-width:2.1555;stroke-linecap:square;stroke-linejoin:round;stroke-miterlimit:10;}
	.st18{fill:#111111;}
	.st19{fill:none;stroke:#FCFCFC;stroke-width:1.6748;stroke-linecap:square;stroke-linejoin:round;stroke-miterlimit:10;}
	.st20{fill:#FCFCFC;}
	.st21{fill:none;stroke:#191919;stroke-width:1.6748;stroke-linecap:square;stroke-linejoin:round;stroke-miterlimit:10;}
	.st22{fill:none;stroke:#191919;stroke-width:14.4335;stroke-linecap:square;stroke-linejoin:round;stroke-miterlimit:10;}
</style>
<g id="Calque_1" class="st0">
	<rect x="-0.7" y="0" class="st1" width="284.3" height="284.3"/>
	<rect x="-0.7" y="0" class="st2" width="284.3" height="284.3"/>
</g>
<g id="Calque_2" class="st0">
	<g class="st3">
		<path class="st4" d="M141.7,252.1c-60.9,0-110.4-49.5-110.4-110.4c0-60.9,49.5-110.4,110.4-110.4c60.9,0,110.4,49.5,110.4,110.4
			C252.1,202.6,202.6,252.1,141.7,252.1z"/>
		<path class="st4" d="M141.7,51.3c49.8,0,90.4,40.6,90.4,90.4s-40.6,90.4-90.4,90.4s-90.4-40.6-90.4-90.4S91.9,51.3,141.7,51.3
			 M141.7,11.3c-72,0-130.4,58.4-130.4,130.4s58.4,130.4,130.4,130.4s130.4-58.4,130.4-130.4S213.7,11.3,141.7,11.3L141.7,11.3z"/>
	</g>
</g>
<g id="Calque_3" class="st0">
	<g class="st3">
		<g>
			<rect x="39.7" y="138.2" class="st5" width="172.5" height="20.5"/>
			<text transform="matrix(1 0 0 1 39.6859 154.4934)"><tspan x="0" y="0" class="st6 st7 st8">Aurelien </tspan><tspan x="87.7" y="0" class="st9 st7 st8">thomas</tspan><tspan x="167.5" y="0" class="st6 st7 st8">     </tspan></text>
			<g>
				<circle class="st10" cx="93.5" cy="139.7" r="2.1"/>
				<path class="st4" d="M93.5,137.9c1,0,1.8,0.8,1.8,1.8c0,1-0.8,1.8-1.8,1.8c-1,0-1.8-0.8-1.8-1.8
					C91.7,138.7,92.5,137.9,93.5,137.9 M93.5,137.2c-1.4,0-2.5,1.1-2.5,2.5s1.1,2.5,2.5,2.5c1.4,0,2.5-1.1,2.5-2.5
					S94.9,137.2,93.5,137.2L93.5,137.2z"/>
			</g>
		</g>
		<g class="st0">
			<g class="st3">
				<g>
					<circle class="st6" cx="228.5" cy="125.2" r="21.6"/>
				</g>
			</g>
			<g class="st3">
				<g>
					<rect x="225.3" y="121.9" class="st11" width="12.1" height="12.2"/>
					<rect x="220.7" y="117.3" class="st11" width="11.9" height="11.9"/>
					<rect x="225.4" y="122" class="st10" width="7.2" height="7.2"/>
					<rect x="219.7" y="116.3" class="st12" width="13.8" height="13.8"/>
					<rect x="224.5" y="121.1" class="st12" width="13.8" height="13.8"/>
				</g>
			</g>
		</g>
		<g class="st0">
			<g class="st3">
				<g>
					<ellipse class="st6" cx="228.4" cy="125.8" rx="21.7" ry="22.1"/>
				</g>
			</g>
			<g class="st3">
				<g>
					<rect x="224.5" y="121.8" class="st11" width="12.2" height="12.5"/>
					<rect x="219.9" y="117" class="st11" width="11.9" height="12.2"/>
					<rect x="224.6" y="121.8" class="st10" width="7.2" height="7.4"/>
					<rect x="218.9" y="116" class="st13" width="13.9" height="14.1"/>
					<rect x="224.9" y="122.3" class="st13" width="13.9" height="14.1"/>
				</g>
			</g>
		</g>
		<g class="st0">
			<g class="st3">
				<g>
					
						<ellipse transform="matrix(0.7071 -0.7071 0.7071 0.7071 -21.7425 198.2989)" class="st6" cx="228.5" cy="125.4" rx="22.3" ry="22.3"/>
				</g>
			</g>
			<g class="st3">
				<g>
					
						<rect x="226.3" y="119" transform="matrix(0.7071 -0.7071 0.7071 0.7071 -20.4905 201.1771)" class="st11" width="12.5" height="12.6"/>
					
						<rect x="219.6" y="119.1" transform="matrix(0.7071 -0.7071 0.7071 0.7071 -22.4707 196.3086)" class="st11" width="12.3" height="12.3"/>
					
						<rect x="225.4" y="121.6" transform="matrix(0.7071 -0.7071 0.7071 0.7071 -21.5079 198.6774)" class="st10" width="7.4" height="7.5"/>
					
						<rect x="218.5" y="118.2" transform="matrix(0.7071 -0.7071 0.7071 0.7071 -22.5146 196.2711)" class="st14" width="14.2" height="14.2"/>
					
						<rect x="225.5" y="118.2" transform="matrix(0.7071 -0.7071 0.7071 0.7071 -20.4782 201.1849)" class="st14" width="14.2" height="14.2"/>
				</g>
			</g>
		</g>
		<g class="st0">
			<g class="st3">
				<g>
					<ellipse class="st6" cx="228.6" cy="125.6" rx="22.1" ry="22.4"/>
				</g>
			</g>
			<g class="st3">
				<g>
					<rect x="225.3" y="122.2" class="st11" width="12.4" height="12.6"/>
					<rect x="220.7" y="117.4" class="st11" width="12.1" height="12.4"/>
					<rect x="225.4" y="122.2" class="st10" width="7.4" height="7.5"/>
					<rect x="219.6" y="116.4" class="st15" width="14.1" height="14.3"/>
					<rect x="224.5" y="121.3" class="st15" width="14.1" height="14.3"/>
				</g>
			</g>
			<g class="st3">
				<g>
					
						<rect x="225.2" y="117.4" transform="matrix(6.123234e-17 -1 1 6.123234e-17 107.9385 355.1133)" class="st11" width="12.6" height="12.4"/>
					
						<rect x="220.5" y="122.3" transform="matrix(6.123234e-17 -1 1 6.123234e-17 98.2384 355.122)" class="st11" width="12.3" height="12.2"/>
					
						<rect x="225.3" y="122.4" transform="matrix(6.123234e-17 -1 1 6.123234e-17 102.9575 355.1189)" class="st10" width="7.5" height="7.4"/>
					
						<rect x="219.5" y="121.5" transform="matrix(6.123234e-17 -1 1 6.123234e-17 98.1432 355.1711)" class="st15" width="14.3" height="14.1"/>
					
						<rect x="224.4" y="116.5" transform="matrix(6.123234e-17 -1 1 6.123234e-17 107.9606 355.0976)" class="st15" width="14.3" height="14.1"/>
				</g>
			</g>
		</g>
		<g>
			<g>
				<g>
					<ellipse class="st6" cx="227.8" cy="125" rx="17.3" ry="17.3"/>
				</g>
			</g>
			<g>
				<g>
					<rect x="221.9" y="119.5" class="st11" width="9.7" height="9.7"/>
					<rect x="218.2" y="115.8" class="st11" width="9.5" height="9.6"/>
					<rect x="221.9" y="119.5" class="st10" width="5.8" height="5.8"/>
					<rect x="221.2" y="118.8" class="st16" width="13.3" height="13.3"/>
				</g>
			</g>
		</g>
	</g>
</g>
<g id="Calque_3_-_copie" class="st0">
	<g>
		<g class="st3">
			<rect x="56.7" y="132.6" class="st5" width="172.5" height="20.5"/>
			<text transform="matrix(1 0 0 1 56.6938 148.8241)"><tspan x="0" y="0" class="st6 st7 st8">Aurelien </tspan><tspan x="87.7" y="0" class="st9 st7 st8">thomas</tspan><tspan x="167.5" y="0" class="st6 st7 st8">     </tspan></text>
			<g>
				<circle class="st10" cx="110.5" cy="134" r="2.1"/>
				<path class="st4" d="M110.5,132.2c1,0,1.8,0.8,1.8,1.8c0,1-0.8,1.8-1.8,1.8s-1.8-0.8-1.8-1.8C108.7,133,109.5,132.2,110.5,132.2
					 M110.5,131.5c-1.4,0-2.5,1.1-2.5,2.5c0,1.4,1.1,2.5,2.5,2.5s2.5-1.1,2.5-2.5C113,132.6,111.9,131.5,110.5,131.5L110.5,131.5z"
					/>
			</g>
		</g>
		<g class="st3">
			<g>
				<g>
					<ellipse class="st6" cx="145" cy="99.6" rx="19.4" ry="19.4"/>
				</g>
			</g>
			<g>
				<g>
					<rect x="138.3" y="93.4" class="st11" width="10.9" height="10.9"/>
					<rect x="134.2" y="89.3" class="st11" width="10.7" height="10.7"/>
					<rect x="138.4" y="93.5" class="st10" width="6.5" height="6.5"/>
					<rect x="137.6" y="92.7" class="st17" width="14.9" height="14.9"/>
				</g>
			</g>
		</g>
	</g>
</g>
<g id="Calque_5">
	<g class="st0">
		<g class="st3">
			<circle class="st18" cx="147.5" cy="136.2" r="36.9"/>
		</g>
		<g class="st3">
			<rect x="140.1" y="128.9" class="st10" width="23.5" height="23.6"/>
			<rect x="132.4" y="120.9" class="st10" width="23.5" height="23.6"/>
			<rect x="140.1" y="128.6" class="st18" width="15.9" height="16"/>
			<rect x="140.1" y="128.7" class="st19" width="23.7" height="23.7"/>
			<rect x="132.2" y="120.8" class="st19" width="23.7" height="23.7"/>
		</g>
	</g>
	<g class="st0">
		<g class="st3">
			<circle class="st20" cx="65.2" cy="136.1" r="36.9"/>
		</g>
		<g class="st3">
			<rect x="57.7" y="128.7" class="st10" width="23.5" height="23.6"/>
			<rect x="50" y="120.8" class="st10" width="23.5" height="23.6"/>
			<rect x="57.7" y="128.5" class="st20" width="15.9" height="16"/>
			<rect x="57.7" y="128.6" class="st21" width="23.7" height="23.7"/>
			<rect x="49.8" y="120.7" class="st21" width="23.7" height="23.7"/>
		</g>
	</g>
	<g>
		<g>
			<g>
				<circle class="st6" cx="142.2" cy="142.2" r="129.9"/>
			</g>
		</g>
		<g>
			<g>
				<rect x="97.6" y="100.8" class="st10" width="43.3" height="43.5"/>
				<rect x="92.3" y="95.7" class="st22" width="99.9" height="99.9"/>
			</g>
		</g>
	</g>
</g>
</svg>
