# 3ds Max Wavefront OBJ Exporter v0.97b - (c)2007 guruware
# File Created: 19.09.2018 18:00:49

mtllib cursorIn.mtl

#
# object object_1
#

v  1.3593 0.5618 -1.5050
v  1.3593 0.5618 -5.3822
v  -1.0651 0.5618 -5.3822
v  -1.0651 0.5618 -1.5050
v  1.3593 0.5618 2.3721
v  -1.0651 0.5618 2.3721
v  -3.4896 0.5618 -9.2594
v  -3.4896 0.5618 -5.3822
v  -3.4896 0.5618 -1.5050
v  -3.4896 0.5618 2.3721
v  -5.9140 0.5618 -9.2594
v  -5.9140 0.5618 -5.3822
v  -5.9140 0.5618 -1.5050
v  -5.9140 0.5618 2.3721
v  7.1670 0.5618 -1.5066
v  9.0988 0.5618 0.4478
v  9.0797 0.5618 -1.5066
v  7.1460 0.5618 -3.4421
v  6.2081 0.5618 -1.5050
v  5.2194 0.5618 -3.4421
v  5.8768 0.5618 2.3758
v  8.4669 0.5618 2.3758
v  8.6325 0.5618 2.3721
v  11.0570 0.5618 2.3758
v  11.0275 0.5618 0.4478
v  3.7837 0.5618 2.3721
v  3.2747 0.5618 -7.3227
v  1.3449 0.5618 -7.3227
v  3.2747 0.5618 -5.3814
v  5.2180 0.5618 -5.3814
v  1.3597 0.5618 6.2491
v  -0.5876 0.5618 4.3062
v  3.2867 0.5618 2.3758
v  3.2994 0.5618 10.1252
v  5.2063 0.5618 10.1286
v  5.2132 0.5618 8.1884
v  5.2340 0.5618 14.0034
v  7.1695 0.5618 14.0031
v  7.1595 0.5618 12.0659
v  3.2989 0.5618 12.0645
v  7.1495 0.5618 10.1286
v  3.2867 0.5618 6.2482
v  5.2201 0.5618 6.2482
v  3.2867 0.5618 4.3120
v  1.3597 0.5618 8.1871
v  1.3597 0.5618 10.1252
v  3.2985 0.5618 14.0037
v  -6.4186 0.5618 -15.0834
v  -4.4720 0.5618 -13.1427
v  -4.4743 0.5618 -15.0783
v  -2.5232 0.5618 -11.1985
v  -2.5392 0.5618 -13.1344
v  -0.5972 0.5618 -9.2589
v  1.3449 0.5618 -9.2589
v  -0.5972 0.5618 -11.1985
v  -8.3384 0.5618 -17.0138
v  -6.4169 0.5618 -17.0138
v  -8.3384 0.5618 -14.3001
v  -8.3384 0.5618 -11.5865
v  -8.3384 0.5618 -8.8728
v  -8.3384 0.5618 -6.1591
v  -8.3384 0.5618 -3.4455
v  -2.5268 0.5618 4.3062
v  -4.4765 0.5618 6.2448
v  -2.5268 0.5618 6.2448
v  -6.3968 0.5618 8.1882
v  -4.4765 0.5618 8.1882
v  -0.5876 0.5618 6.2491
v  -8.3384 0.5618 -0.7318
v  -8.3384 0.5618 1.9819
v  -8.3384 0.5618 4.6955
v  -8.3384 0.5618 7.4092
v  -8.3384 0.5618 10.1229
v  -6.3968 0.5618 10.1229
v  9.0988 -1.1730 0.4478
v  9.0797 -1.1730 -1.5066
v  7.1670 -1.1730 -1.5066
v  7.1460 -1.1730 -3.4421
v  5.2194 -1.1730 -3.4421
v  5.2180 -1.1730 -5.3814
v  3.2747 -1.1730 -5.3814
v  3.2747 -1.1730 -7.3227
v  1.3449 -1.1730 -7.3227
v  1.3449 -1.1730 -9.2589
v  -0.5972 -1.1730 -9.2589
v  -0.5972 -1.1730 -11.1985
v  -2.5232 -1.1730 -11.1985
v  -2.5392 -1.1730 -13.1344
v  -4.4720 -1.1730 -13.1427
v  -4.4743 -1.1730 -15.0783
v  -6.4186 -1.1730 -15.0834
v  -6.4169 -1.1730 -17.0138
v  -8.3384 -1.1730 -17.0138
v  -8.3384 -1.1730 -14.3001
v  -8.3384 -1.1730 -11.5865
v  -8.3384 -1.1730 -8.8728
v  -8.3384 -1.1730 -6.1591
v  -8.3384 -1.1730 -3.4455
v  -8.3384 -1.1730 -0.7318
v  -8.3384 -1.1730 1.9819
v  -8.3384 -1.1730 4.6955
v  -8.3384 -1.1730 7.4092
v  -8.3384 -1.1730 10.1229
v  -6.3968 -1.1730 10.1229
v  -6.3968 -1.1730 8.1882
v  -4.4765 -1.1730 8.1882
v  -4.4765 -1.1730 6.2448
v  -2.5268 -1.1730 6.2448
v  -2.5268 -1.1730 4.3062
v  -0.5876 -1.1730 4.3062
v  -0.5876 -1.1730 6.2491
v  1.3597 -1.1730 6.2491
v  1.3597 -1.1730 8.1871
v  1.3597 -1.1730 10.1252
v  3.2994 -1.1730 10.1252
v  3.2989 -1.1730 12.0645
v  3.2985 -1.1730 14.0037
v  5.2340 -1.1730 14.0034
v  7.1695 -1.1730 14.0031
v  7.1595 -1.1730 12.0659
v  7.1495 -1.1730 10.1286
v  5.2063 -1.1730 10.1286
v  5.2132 -1.1730 8.1884
v  5.2201 -1.1730 6.2482
v  3.2867 -1.1730 6.2482
v  3.2867 -1.1730 4.3120
v  3.2867 -1.1730 2.3758
v  5.8768 -1.1730 2.3758
v  8.4669 -1.1730 2.3758
v  11.0570 -1.1730 2.3758
v  11.0275 -1.1730 0.4478
# 131 vertices

vn 0.0000 1.0000 0.0000
vn 1.0000 0.0000 -0.0098
vn 0.0000 0.0000 -1.0000
vn 0.9999 0.0000 -0.0109
vn 1.0000 0.0000 -0.0007
vn 1.0000 0.0000 -0.0000
vn 1.0000 0.0000 -0.0082
vn 0.0043 0.0000 -1.0000
vn 1.0000 0.0000 -0.0012
vn 0.0026 0.0000 -1.0000
vn 1.0000 0.0000 0.0009
vn -1.0000 0.0000 -0.0000
vn 0.0000 0.0000 1.0000
vn -1.0000 0.0000 -0.0002
vn 0.0001 0.0000 1.0000
vn 1.0000 0.0000 -0.0052
vn 1.0000 0.0000 0.0036
vn 0.9999 0.0000 -0.0153
vn 0.0000 -1.0000 -0.0000
# 19 vertex normals

vt 0.4994 0.5210 0.0000
vt 0.4994 0.4368 0.0000
vt 0.5827 0.4368 0.0000
vt 0.5827 0.5210 0.0000
vt 0.4994 0.6053 0.0000
vt 0.5827 0.6053 0.0000
vt 0.6660 0.3526 0.0000
vt 0.6660 0.4368 0.0000
vt 0.6660 0.5210 0.0000
vt 0.6660 0.6053 0.0000
vt 0.7493 0.3526 0.0000
vt 0.7493 0.4368 0.0000
vt 0.7493 0.5210 0.0000
vt 0.7493 0.6053 0.0000
vt 0.2998 0.5210 0.0000
vt 0.2334 0.5635 0.0000
vt 0.2341 0.5210 0.0000
vt 0.3005 0.4790 0.0000
vt 0.3328 0.5210 0.0000
vt 0.3667 0.4790 0.0000
vt 0.3441 0.6054 0.0000
vt 0.2551 0.6054 0.0000
vt 0.2494 0.6053 0.0000
vt 0.1661 0.6054 0.0000
vt 0.1672 0.5635 0.0000
vt 0.4161 0.6053 0.0000
vt 0.4335 0.3946 0.0000
vt 0.4999 0.3946 0.0000
vt 0.4335 0.4368 0.0000
vt 0.3668 0.4368 0.0000
vt 0.4994 0.6895 0.0000
vt 0.5663 0.6473 0.0000
vt 0.4331 0.6054 0.0000
vt 0.4327 0.7737 0.0000
vt 0.3672 0.7738 0.0000
vt 0.3669 0.7316 0.0000
vt 0.3662 0.8580 0.0000
vt 0.2997 0.8580 0.0000
vt 0.3001 0.8159 0.0000
vt 0.4327 0.8159 0.0000
vt 0.3004 0.7738 0.0000
vt 0.4331 0.6895 0.0000
vt 0.3667 0.6895 0.0000
vt 0.4331 0.6474 0.0000
vt 0.4994 0.7316 0.0000
vt 0.4994 0.7737 0.0000
vt 0.4327 0.8580 0.0000
vt 0.7666 0.2260 0.0000
vt 0.6997 0.2682 0.0000
vt 0.6998 0.2261 0.0000
vt 0.6328 0.3104 0.0000
vt 0.6333 0.2684 0.0000
vt 0.5666 0.3526 0.0000
vt 0.4999 0.3526 0.0000
vt 0.5666 0.3104 0.0000
vt 0.8326 0.1841 0.0000
vt 0.7666 0.1841 0.0000
vt 0.8326 0.2430 0.0000
vt 0.8326 0.3020 0.0000
vt 0.8326 0.3610 0.0000
vt 0.8326 0.4199 0.0000
vt 0.8326 0.4789 0.0000
vt 0.6329 0.6473 0.0000
vt 0.6999 0.6894 0.0000
vt 0.6329 0.6894 0.0000
vt 0.7659 0.7316 0.0000
vt 0.6999 0.7316 0.0000
vt 0.5663 0.6895 0.0000
vt 0.8326 0.5378 0.0000
vt 0.8326 0.5968 0.0000
vt 0.8326 0.6558 0.0000
vt 0.8326 0.7147 0.0000
vt 0.8326 0.7737 0.0000
vt 0.7659 0.7737 0.0000
# 74 texture coords

o object_1
g object_1
usemtl Material_1
s 1
f 1/1/1 2/2/1 3/3/1 4/4/1 
f 5/5/1 1/1/1 4/4/1 6/6/1 
f 7/7/1 8/8/1 3/3/1 
f 4/4/1 3/3/1 8/8/1 9/9/1 
f 6/6/1 4/4/1 9/9/1 10/10/1 
f 8/8/1 7/7/1 11/11/1 12/12/1 
f 9/9/1 8/8/1 12/12/1 13/13/1 
f 10/10/1 9/9/1 13/13/1 14/14/1 
f 15/15/1 16/16/1 17/17/1 
f 15/15/1 18/18/1 19/19/1 
f 20/20/1 19/19/1 18/18/1 
f 21/21/1 22/22/1 23/23/1 
f 16/16/1 24/24/1 25/25/1 
f 15/15/1 23/23/1 16/16/1 
f 19/19/1 23/23/1 15/15/1 
f 23/23/1 24/24/1 16/16/1 
f 23/23/1 19/19/1 26/26/1 
f 2/2/1 27/27/1 28/28/1 
f 2/2/1 29/29/1 27/27/1 
f 20/20/1 1/1/1 19/19/1 
f 1/1/1 5/5/1 26/26/1 19/19/1 
f 2/2/1 1/1/1 29/29/1 
f 29/29/1 1/1/1 20/20/1 
f 29/29/1 20/20/1 30/30/1 
f 21/21/1 23/23/1 26/26/1 
f 31/31/1 5/5/1 32/32/1 
f 5/5/1 33/33/1 26/26/1 
f 24/24/1 23/23/1 22/22/1 
f 34/34/1 35/35/1 36/36/1 
f 26/26/1 33/33/1 21/21/1 
f 37/37/1 38/38/1 39/39/1 
f 39/39/1 35/35/1 37/37/1 
f 40/40/1 37/37/1 35/35/1 
f 41/41/1 35/35/1 39/39/1 
f 42/42/1 36/36/1 43/43/1 
f 44/44/1 33/33/1 5/5/1 
f 45/45/1 42/42/1 31/31/1 
f 44/44/1 31/31/1 42/42/1 
f 44/44/1 5/5/1 31/31/1 
f 36/36/1 42/42/1 34/34/1 
f 35/35/1 34/34/1 40/40/1 
f 45/45/1 46/46/1 34/34/1 
f 45/45/1 34/34/1 42/42/1 
f 37/37/1 40/40/1 47/47/1 
f 48/48/1 49/49/1 50/50/1 
f 49/49/1 51/51/1 52/52/1 
f 3/3/1 28/28/1 53/53/1 
f 28/28/1 54/54/1 53/53/1 
f 3/3/1 53/53/1 7/7/1 
f 51/51/1 7/7/1 53/53/1 
f 49/49/1 7/7/1 51/51/1 
f 53/53/1 55/55/1 51/51/1 
f 7/7/1 49/49/1 11/11/1 
f 49/49/1 48/48/1 11/11/1 
f 56/56/1 48/48/1 57/57/1 
f 48/48/1 56/56/1 58/58/1 
f 59/59/1 48/48/1 58/58/1 
f 11/11/1 60/60/1 61/61/1 12/12/1 
f 11/11/1 59/59/1 60/60/1 
f 59/59/1 11/11/1 48/48/1 
f 62/62/1 12/12/1 61/61/1 
f 63/63/1 32/32/1 6/6/1 10/10/1 
f 6/6/1 32/32/1 5/5/1 
f 14/14/1 64/64/1 10/10/1 
f 63/63/1 64/64/1 65/65/1 
f 64/64/1 66/66/1 67/67/1 
f 64/64/1 63/63/1 10/10/1 
f 32/32/1 68/68/1 31/31/1 
f 14/14/1 13/13/1 69/69/1 70/70/1 
f 62/62/1 69/69/1 13/13/1 
f 71/71/1 14/14/1 70/70/1 
f 66/66/1 72/72/1 73/73/1 74/74/1 
f 66/66/1 71/71/1 72/72/1 
f 71/71/1 66/66/1 14/14/1 
f 14/14/1 66/66/1 64/64/1 
f 13/13/1 12/12/1 62/62/1 
f 2/2/1 28/28/1 3/3/1 
s off
f 75/16/2 76/17/2 17/17/2 16/16/2 
f 76/17/3 77/15/3 15/15/3 17/17/3 
f 77/15/4 78/18/4 18/18/4 15/15/4 
f 78/18/3 79/20/3 20/20/3 18/18/3 
f 79/20/5 80/30/5 30/30/5 20/20/5 
f 80/30/3 81/29/3 29/29/3 30/30/3 
f 81/29/6 82/27/6 27/27/6 29/29/6 
f 82/27/3 83/28/3 28/28/3 27/27/3 
f 83/28/6 84/54/6 54/54/6 28/28/6 
f 84/54/3 85/53/3 53/53/3 54/54/3 
f 85/53/6 86/55/6 55/55/6 53/53/6 
f 86/55/3 87/51/3 51/51/3 55/55/3 
f 87/51/7 88/52/7 52/52/7 51/51/7 
f 88/52/8 89/49/8 49/49/8 52/52/8 
f 89/49/9 90/50/9 50/50/9 49/49/9 
f 90/50/10 91/48/10 48/48/10 50/50/10 
f 91/48/11 92/57/11 57/57/11 48/48/11 
f 92/57/3 93/56/3 56/56/3 57/57/3 
f 93/56/12 94/58/12 58/58/12 56/56/12 
f 94/58/12 95/59/12 59/59/12 58/58/12 
f 95/59/12 96/60/12 60/60/12 59/59/12 
f 96/60/12 97/61/12 61/61/12 60/60/12 
f 97/61/12 98/62/12 62/62/12 61/61/12 
f 98/62/12 99/69/12 69/69/12 62/62/12 
f 99/69/12 100/70/12 70/70/12 69/69/12 
f 100/70/12 101/71/12 71/71/12 70/70/12 
f 101/71/12 102/72/12 72/72/12 71/71/12 
f 102/72/12 103/73/12 73/73/12 72/72/12 
f 103/73/13 104/74/13 74/74/13 73/73/13 
f 104/74/6 105/66/6 66/66/6 74/74/6 
f 105/66/13 106/67/13 67/67/13 66/66/13 
f 106/67/6 107/64/6 64/64/6 67/67/6 
f 107/64/13 108/65/13 65/65/13 64/64/13 
f 108/65/6 109/63/6 63/63/6 65/65/6 
f 109/63/13 110/32/13 32/32/13 63/63/13 
f 110/32/12 111/68/12 68/68/12 32/32/12 
f 111/68/13 112/31/13 31/31/13 68/68/13 
f 112/31/12 113/45/12 45/45/12 31/31/12 
f 113/45/12 114/46/12 46/46/12 45/45/12 
f 114/46/13 115/34/13 34/34/13 46/46/13 
f 115/34/14 116/40/14 40/40/14 34/34/14 
f 116/40/14 117/47/14 47/47/14 40/40/14 
f 117/47/15 118/37/15 37/37/15 47/47/15 
f 118/37/15 119/38/15 38/38/15 37/37/15 
f 119/38/16 120/39/16 39/39/16 38/38/16 
f 120/39/16 121/41/16 41/41/16 39/39/16 
f 121/41/3 122/35/3 35/35/3 41/41/3 
f 122/35/17 123/36/17 36/36/17 35/35/17 
f 123/36/17 124/43/17 43/43/17 36/36/17 
f 124/43/3 125/42/3 42/42/3 43/43/3 
f 125/42/6 126/44/6 44/44/6 42/42/6 
f 126/44/6 127/33/6 33/33/6 44/44/6 
f 127/33/13 128/21/13 21/21/13 33/33/13 
f 128/21/13 129/22/13 22/22/13 21/21/13 
f 129/22/13 130/24/13 24/24/13 22/22/13 
f 130/24/18 131/25/18 25/25/18 24/24/18 
f 131/25/3 75/16/3 16/16/3 25/25/3 
f 75/16/19 131/25/19 130/24/19 129/22/19 128/21/19 127/33/19 126/44/19 125/42/19 124/43/19 123/36/19 122/35/19 121/41/19 120/39/19 119/38/19 118/37/19 117/47/19 116/40/19 115/34/19 114/46/19 113/45/19 112/31/19 111/68/19 110/32/19 109/63/19 108/65/19 107/64/19 106/67/19 105/66/19 104/74/19 103/73/19 102/72/19 101/71/19 100/70/19 99/69/19 98/62/19 97/61/19 96/60/19 95/59/19 94/58/19 93/56/19 92/57/19 91/48/19 90/50/19 89/49/19 88/52/19 87/51/19 86/55/19 85/53/19 84/54/19 83/28/19 82/27/19 81/29/19 80/30/19 79/20/19 78/18/19 77/15/19 76/17/19 
# 70 polygons - 65 triangles

