# 3ds Max Wavefront OBJ Exporter v0.97b - (c)2007 guruware
# File Created: 19.09.2018 18:23:56

mtllib play.mtl

#
# object Box001
#

v  -17.4070 -3.4660 5.7907
v  -18.2186 -3.4660 5.6778
v  -18.7048 -3.4660 5.3393
v  -18.8657 -3.4660 4.7750
v  -18.7014 -3.4660 3.9850
v  -18.2117 -3.4660 2.9692
v  -0.0000 -3.4660 -28.5369
v  18.2117 -3.4660 2.9692
v  18.7014 -3.4660 3.9850
v  18.8657 -3.4660 4.7750
v  18.7048 -3.4660 5.3393
v  18.2186 -3.4660 5.6778
v  17.4070 -3.4660 5.7907
v  -18.2117 3.4660 2.9692
v  -18.7014 3.4660 3.9850
v  -18.8657 3.4660 4.7750
v  -18.7048 3.4660 5.3393
v  -18.2186 3.4660 5.6778
v  -17.4070 3.4660 5.7907
v  17.4070 3.4660 5.7907
v  18.2186 3.4660 5.6778
v  18.7048 3.4660 5.3393
v  18.8657 3.4660 4.7750
v  18.7014 3.4660 3.9850
v  18.2117 3.4660 2.9692
v  -0.0000 3.4660 -28.5369
# 26 vertices

vn -0.0319 -0.6972 0.7161
vn -0.1864 -0.6718 0.7169
vn -0.5468 -0.6347 0.5461
vn -0.7717 -0.6347 0.0405
vn -0.6572 -0.6719 -0.3416
vn -0.5532 -0.6972 -0.4559
vn -0.3169 -0.6260 -0.7125
vn 0.7641 0.5483 0.3399
vn 0.5532 -0.6972 -0.4559
vn 0.6572 -0.6719 -0.3416
vn 0.7717 -0.6347 0.0405
vn 0.5468 -0.6347 0.5461
vn 0.1864 -0.6718 0.7169
vn 0.0319 -0.6972 0.7161
vn -0.5532 0.6972 -0.4559
vn -0.6572 0.6719 -0.3416
vn -0.7717 0.6347 0.0405
vn -0.5468 0.6347 0.5461
vn -0.1864 0.6718 0.7169
vn -0.0319 0.6972 0.7161
vn 0.0319 0.6972 0.7161
vn 0.1864 0.6718 0.7169
vn 0.5468 0.6347 0.5461
vn 0.7717 0.6347 0.0405
vn 0.6572 0.6719 -0.3416
vn 0.5532 0.6972 -0.4559
vn 0.7641 -0.5483 0.3399
vn -0.3169 0.6260 -0.7125
# 28 vertex normals

vt 0.9437 0.0822 0.0000
vt 0.9607 0.0033 0.0000
vt 0.9779 0.0132 0.0000
vt 0.9902 0.0296 0.0000
vt 0.9975 0.0526 0.0000
vt 1.0000 0.0822 0.0000
vt 1.0000 1.0000 0.0000
vt 0.0000 1.0000 0.0000
vt 0.0563 0.0822 0.0000
vt 0.0604 0.0526 0.0000
vt 0.0687 0.0296 0.0000
vt 0.0812 0.0132 0.0000
vt 0.0979 0.0033 0.0000
vt 0.1187 0.0000 0.0000
vt 0.0000 0.0822 0.0000
vt 0.0025 0.0526 0.0000
vt 0.0098 0.0296 0.0000
vt 0.0221 0.0132 0.0000
vt 0.0393 0.0033 0.0000
vt 0.8813 0.0000 0.0000
vt 0.9021 0.0033 0.0000
vt 0.9188 0.0132 0.0000
vt 0.9313 0.0296 0.0000
vt 0.9396 0.0526 0.0000
vt 0.0614 0.0000 0.0000
vt 0.9386 0.0000 0.0000
vt 0.9386 1.0000 0.0000
vt 0.0614 1.0000 0.0000
vt 0.0754 0.0000 0.0000
vt 0.9178 0.0000 0.0000
vt 0.9178 1.0000 0.0000
vt 0.0754 1.0000 0.0000
vt 1.3695 1.0000 0.0000
vt 1.2792 1.0000 0.0000
vt 1.2792 0.0000 0.0000
vt 1.3695 0.0000 0.0000
vt 1.1888 1.0000 0.0000
vt 1.1888 0.0000 0.0000
vt 1.0985 1.0000 0.0000
vt 1.0985 0.0000 0.0000
vt 1.0081 1.0000 0.0000
vt 1.0081 0.0000 0.0000
vt -0.3747 -0.0000 0.0000
vt -0.2846 -0.0000 0.0000
vt -0.2846 1.0000 0.0000
vt -0.3747 1.0000 0.0000
vt -0.1946 -0.0000 0.0000
vt -0.1946 1.0000 0.0000
vt -0.1046 -0.0000 0.0000
vt -0.1046 1.0000 0.0000
vt -0.0146 -0.0000 0.0000
vt -0.0146 1.0000 0.0000
# 52 texture coords

o Box001
g Box001
usemtl wire_061135006
s 1
f 1/1/1 2/2/2 3/3/3 4/4/4 5/5/5 6/6/6 7/7/7 7/8/8 8/9/9 9/10/10 10/11/11 11/12/12 12/13/13 13/14/14 
f 14/15/15 15/16/16 16/17/17 17/18/18 18/19/19 19/14/20 20/20/21 21/21/22 22/22/23 23/23/24 24/24/25 25/1/26 26/7/27 26/8/28 
s 2
f 1/25/1 13/26/14 20/27/21 19/28/20 
f 8/29/9 7/30/8 26/31/27 25/32/26 
s 4
f 7/25/8 7/26/7 26/27/28 26/28/27 
s 2
f 7/29/7 6/30/6 14/31/15 26/32/28 
f 19/33/20 18/34/19 2/35/2 1/36/1 
f 18/34/19 17/37/18 3/38/3 2/35/2 
s 4
f 17/37/18 16/39/17 4/40/4 3/38/3 
s 2
f 16/39/17 15/41/16 5/42/5 4/40/4 
f 15/41/16 14/31/15 6/30/6 5/42/5 
f 13/43/14 12/44/13 21/45/22 20/46/21 
f 12/44/13 11/47/12 22/48/23 21/45/22 
s 4
f 11/47/12 10/49/11 23/50/24 22/48/23 
s 2
f 10/49/11 9/51/10 24/52/25 23/50/24 
f 9/51/10 8/29/9 25/32/26 24/52/25 
# 16 polygons

