# 3ds Max Wavefront OBJ Exporter v0.97b - (c)2007 guruware
# File Created: 19.09.2018 17:42:27

mtllib screen.mtl

#
# object Object001
#

v  10.5708 -19.5201 22.4064
v  10.5708 -18.7942 23.1192
v  10.5708 2.1063 23.1192
v  10.5708 2.1063 -10.8742
v  10.5708 -18.8232 -10.8742
# 5 vertices

vn 1.0000 -0.0000 0.0000
vn 1.0000 -0.0000 -0.0000
vn 1.0000 0.0000 0.0000
# 3 vertex normals

vt 0.9576 0.0923 0.0000
vt 0.9804 0.1436 0.0000
vt 0.9740 0.9049 0.0000
vt 0.5000 0.9049 0.0000
vt 0.5000 0.1169 0.0000
# 5 texture coords

o Object001
g Object001
usemtl wire_086086086
s off
f 5/5/3 4/4/1 3/3/1 2/2/2 1/1/1 
# 1 polygons

